<svg width="24" height="24" viewBox="0 0 24 24" fill="none" xmlns="http://www.w3.org/2000/svg">
<path d="M20 4H4C3.46957 4 2.96086 4.22476 2.58579 4.62484C2.21071 5.02492 2 5.56754 2 6.13333V17.8667C2 18.4325 2.21071 18.9751 2.58579 19.3752C2.96086 19.7752 3.46957 20 4 20H20C20.5304 20 21.0391 19.7752 21.4142 19.3752C21.7893 18.9751 22 18.4325 22 17.8667V6.13333C22 5.56754 21.7893 5.02492 21.4142 4.62484C21.0391 4.22476 20.5304 4 20 4V4ZM19.453 6.13333L12.043 12.8363L4.556 6.13333H19.453ZM4 17.8667V8.42133L10.8 14.5013C11.1421 14.7758 11.5589 14.9237 11.987 14.9227C12.4415 14.9208 12.8829 14.7604 13.244 14.4661L20 8.42133V17.8667H4Z" fill="#1F2A37"/>
</svg>
