<svg width="24" height="24" viewBox="0 0 24 24" fill="none" xmlns="http://www.w3.org/2000/svg">
<path d="M12.079 2C10.7178 1.99914 9.37085 2.27825 8.12202 2.82C8.10102 2.828 8.08302 2.839 8.06402 2.848C6.08238 3.71485 4.43567 5.20155 3.37148 7.0846C2.30729 8.96764 1.88312 11.1452 2.16275 13.29C2.44238 15.4348 3.41069 17.4309 4.92211 18.9782C6.43352 20.5254 8.40636 21.5402 10.544 21.87C10.6201 21.9167 10.7022 21.9527 10.788 21.977C10.8577 21.9919 10.9288 21.9996 11 22C11.0825 21.9963 11.1641 21.9822 11.243 21.958C11.519 21.981 11.796 22 12.078 22C14.7302 22 17.2737 20.9464 19.1491 19.0711C21.0245 17.1957 22.078 14.6522 22.078 12C22.078 9.34784 21.0245 6.8043 19.1491 4.92893C17.2737 3.05357 14.7302 2 12.078 2H12.079ZM18.332 7.025C17.717 7.08606 17.1463 7.3728 16.7303 7.82986C16.3142 8.28693 16.0822 8.88193 16.079 9.5C15.9722 9.66511 15.8232 9.79859 15.6473 9.88652C15.4714 9.97446 15.2752 10.0136 15.079 10C14.8829 10.0136 14.6866 9.97446 14.5108 9.88652C14.3349 9.79859 14.1858 9.66511 14.079 9.5C14.0789 9.42012 14.0692 9.34055 14.05 9.263C13.8999 8.4406 13.5223 7.67672 12.9601 7.05807C12.3978 6.43942 11.6734 5.99076 10.869 5.763C10.069 5.45 9.65902 5.275 9.53402 4.419C11.0897 3.89009 12.7711 3.85608 14.3469 4.32166C15.9227 4.78724 17.3156 5.72954 18.334 7.019L18.332 7.025ZM7.70002 5.312C7.87729 5.87276 8.19393 6.37938 8.62033 6.78443C9.04672 7.18949 9.56891 7.47973 10.138 7.628C10.6243 7.7359 11.068 7.98464 11.4137 8.34318C11.7594 8.70171 11.9919 9.15415 12.082 9.644C12.2087 10.335 12.5835 10.956 13.1361 11.3899C13.6886 11.8238 14.3807 12.0408 15.082 12C16.53 12 18.082 11 18.082 9.5C18.082 9.36739 18.1347 9.24022 18.2285 9.14645C18.3222 9.05268 18.4494 9 18.582 9H19.493C20.1451 10.5863 20.2593 12.3426 19.818 14H18.079C17.0182 14 16.0007 14.4214 15.2506 15.1716C14.5004 15.9217 14.079 16.9391 14.079 18V19.737C13.4502 19.9031 12.8034 19.9914 12.153 20C12.331 18.106 12.245 14.543 9.35302 13.212C8.96837 13.0731 8.62655 12.8363 8.36124 12.5251C8.09593 12.2138 7.91629 11.8388 7.84002 11.437C7.42182 9.98845 6.46694 8.7539 5.17002 7.985C5.79592 6.9108 6.66182 5.99595 7.70002 5.312V5.312ZM4.07902 12C4.08181 11.277 4.18273 10.5578 4.37902 9.862C5.15189 10.3886 5.70979 11.1754 5.95102 12.079C6.11722 12.7374 6.43651 13.3473 6.88292 13.8591C7.32932 14.3708 7.89024 14.77 8.52002 15.024C10.233 15.814 10.284 18.324 10.161 19.757C8.42724 19.3278 6.88678 18.3311 5.7847 16.9255C4.68263 15.5199 4.08223 13.7861 4.07902 12V12ZM16.079 18.918V18C16.079 17.4696 16.2897 16.9609 16.6648 16.5858C17.0399 16.2107 17.5486 16 18.079 16H19C18.2964 17.2099 17.2896 18.2156 16.079 18.918V18.918Z" fill="#1F2A37"/>
</svg>
