<svg viewBox="0 0 24 24" fill="none" xmlns="http://www.w3.org/2000/svg">
<path d="M12 14C11.2089 14 10.4355 13.7654 9.7777 13.3259C9.11991 12.8864 8.60722 12.2616 8.30446 11.5307C8.00171 10.7998 7.9225 9.99557 8.07684 9.21964C8.23118 8.44372 8.61215 7.73099 9.17156 7.17158C9.73097 6.61217 10.4437 6.2312 11.2196 6.07686C11.9955 5.92252 12.7998 6.00173 13.5307 6.30449C14.2616 6.60724 14.8863 7.11993 15.3259 7.77772C15.7654 8.43552 16 9.20888 16 10C16 11.0609 15.5786 12.0783 14.8284 12.8284C14.0783 13.5786 13.0608 14 12 14ZM12 8C11.6044 8 11.2177 8.1173 10.8888 8.33706C10.5599 8.55683 10.3036 8.86918 10.1522 9.23464C10.0008 9.60009 9.96124 10.0022 10.0384 10.3902C10.1156 10.7781 10.3061 11.1345 10.5858 11.4142C10.8655 11.6939 11.2218 11.8844 11.6098 11.9616C11.9978 12.0387 12.3999 11.9991 12.7654 11.8478C13.1308 11.6964 13.4432 11.44 13.6629 11.1111C13.8827 10.7822 14 10.3956 14 10C14 9.46957 13.7893 8.96086 13.4142 8.58579C13.0391 8.21072 12.5304 8 12 8Z" fill="#1F2A37"/>
<path d="M12 22C11.8523 21.9999 11.7065 21.9672 11.5731 21.9041C11.4396 21.8409 11.3217 21.7491 11.228 21.635L5.98298 15.261C5.88298 15.149 5.76898 15.009 5.65698 14.861L5.53698 14.715C5.49041 14.6586 5.45017 14.5972 5.41698 14.532C4.59331 13.3377 4.10992 11.9418 4.01857 10.4939C3.92721 9.04598 4.23131 7.60046 4.89834 6.31207C5.56536 5.02369 6.57019 3.94094 7.80527 3.17974C9.04034 2.41853 10.4592 2.00751 11.9099 1.99068C13.3606 1.97385 14.7886 2.35184 16.041 3.08419C17.2934 3.81655 18.3231 4.87569 19.0198 6.14825C19.7165 7.42082 20.0541 8.85889 19.9963 10.3086C19.9386 11.7582 19.4877 13.1649 18.692 14.378C18.6593 14.4468 18.6184 14.5112 18.57 14.57L18.443 14.725C18.2642 14.9695 18.0712 15.2032 17.865 15.425L12.773 21.63C12.6796 21.7451 12.5618 21.838 12.4281 21.902C12.2944 21.966 12.1482 21.9995 12 22ZM7.17498 13.562L7.22198 13.619C7.32198 13.754 7.41498 13.861 7.50698 13.965L12 19.425L16.358 14.117C16.537 13.9242 16.704 13.7204 16.858 13.507L16.933 13.416L16.959 13.375C17.5775 12.4681 17.9354 11.4088 17.9936 10.3125C18.0518 9.21629 17.8082 8.12508 17.2891 7.15772C16.7701 6.19037 15.9957 5.38394 15.0501 4.82625C14.1045 4.26856 13.024 3.98099 11.9263 3.99484C10.8286 4.00869 9.75577 4.32344 8.82455 4.90481C7.89334 5.48618 7.13948 6.31189 6.64505 7.29203C6.15061 8.27218 5.93456 9.36919 6.02042 10.4636C6.10628 11.5581 6.49076 12.608 7.13198 13.499C7.14798 13.5203 7.16232 13.5413 7.17498 13.562Z" fill="#1F2A37"/>
</svg>
