<svg width="24" height="24" viewBox="0 0 24 24" fill="none" xmlns="http://www.w3.org/2000/svg">
<path d="M14.9257 21C14.3966 20.9979 13.8692 20.9382 13.353 20.822C10.9334 20.1397 8.75588 18.7884 7.07097 16.9238C5.20444 15.2399 3.85188 13.0634 3.16911 10.6449C2.89754 9.43803 2.95386 8.18051 3.33225 7.00268C3.71063 5.82485 4.39732 4.76956 5.32114 3.94618C5.60312 3.63704 5.9487 3.39254 6.33416 3.22945C6.71961 3.06636 7.13582 2.98855 7.5542 3.00136C8.31133 3.05625 9.02017 3.39349 9.54015 3.94618L10.9408 5.34592C11.4993 5.90556 11.8129 6.66367 11.8129 7.45403C11.8129 8.24439 11.4993 9.0025 10.9408 9.56213L10.2405 10.262C10.0566 10.4464 9.95343 10.6961 9.95343 10.9564C9.95343 11.2167 10.0566 11.4663 10.2405 11.6507L12.3415 13.7504C12.5263 13.9339 12.7763 14.0369 13.0368 14.0369C13.2974 14.0369 13.5473 13.9339 13.7321 13.7504L14.4325 13.0505C14.9925 12.4921 15.7514 12.1785 16.5425 12.1785C17.3336 12.1785 18.0924 12.4921 18.6525 13.0505L20.0532 14.4502C20.6062 14.9695 20.9436 15.6775 20.9986 16.4339C21.0116 16.8521 20.9338 17.2682 20.7706 17.6536C20.6074 18.039 20.3626 18.3845 20.0532 18.6664C19.4013 19.3823 18.6107 19.9583 17.7292 20.3594C16.8478 20.7606 15.894 20.9785 14.9257 21V21ZM7.42214 5.00299C7.15349 5.02773 6.90562 5.15788 6.73281 5.36492C6.05225 5.95365 5.54362 6.71532 5.26077 7.56929C4.97792 8.42326 4.93137 9.33777 5.12605 10.216C5.73163 12.2606 6.89618 14.0958 8.48865 15.515C9.90876 17.1065 11.7452 18.2703 13.7912 18.8754C14.6707 19.0691 15.5863 19.0218 16.4412 18.7387C17.2962 18.4555 18.0588 17.947 18.6485 17.2667C18.7553 17.1789 18.8425 17.0698 18.9047 16.9463C18.9669 16.8229 19.0026 16.6878 19.0097 16.5498C18.9739 16.2898 18.8457 16.0513 18.6485 15.878L17.2478 14.4782C17.063 14.2947 16.813 14.1917 16.5525 14.1917C16.2919 14.1917 16.042 14.2947 15.8572 14.4782L15.1568 15.1781C14.5965 15.736 13.8378 16.0493 13.0468 16.0493C12.2559 16.0493 11.4971 15.736 10.9368 15.1781L8.83581 13.0785C8.27753 12.5185 7.96406 11.7603 7.96406 10.9699C7.96406 10.1794 8.27753 9.42121 8.83581 8.86127L9.53615 8.1614C9.71992 7.97717 9.82311 7.72765 9.82311 7.46753C9.82311 7.2074 9.71992 6.95788 9.53615 6.77366L8.13548 5.37392C7.96178 5.17695 7.72331 5.04857 7.46316 5.01198L7.42214 5.00299Z" fill="#1F2A37"/>
</svg>
