<?xml version="1.0" encoding="UTF-8" standalone="no"?>
<!-- Created with Inkscape (http://www.inkscape.org/) -->

<svg
   viewBox="0 0 491.9808 104.51175"
   version="1.1"
   id="svg1"
   inkscape:export-filename="vizitka-logo.svg"
   inkscape:export-xdpi="96"
   inkscape:export-ydpi="96"
   xmlns:inkscape="http://www.inkscape.org/namespaces/inkscape"
   xmlns:sodipodi="http://sodipodi.sourceforge.net/DTD/sodipodi-0.dtd"
   xmlns="http://www.w3.org/2000/svg"
   xmlns:svg="http://www.w3.org/2000/svg">
  <sodipodi:namedview
     id="namedview1"
     pagecolor="#ffffff"
     bordercolor="#000000"
     borderopacity="0.25"
     inkscape:showpageshadow="2"
     inkscape:pageopacity="0.0"
     inkscape:pagecheckerboard="0"
     inkscape:deskcolor="#d1d1d1"
     inkscape:document-units="px"
     showguides="true"
     showgrid="false">
    <sodipodi:guide
       position="-351.61206,460.28589"
       orientation="0,-1"
       id="guide4"
       inkscape:locked="false" />
    <sodipodi:guide
       position="242.85437,975.02668"
       orientation="1,0"
       id="guide5"
       inkscape:locked="false" />
    <inkscape:grid
       id="grid5"
       units="px"
       originx="-13.020101"
       originy="-204.28589"
       spacingx="1"
       spacingy="1"
       empcolor="#0099e5"
       empopacity="0.30196078"
       color="#0099e5"
       opacity="0.14901961"
       empspacing="5"
       dotted="false"
       gridanglex="30"
       gridanglez="30"
       visible="false" />
    <sodipodi:guide
       position="362.68873,473.75085"
       orientation="1,0"
       id="guide6"
       inkscape:locked="false" />
    <sodipodi:guide
       position="373.27208,515.20229"
       orientation="1,0"
       id="guide7"
       inkscape:locked="false" />
    <sodipodi:guide
       position="128.54385,529.8206"
       orientation="1,0"
       id="guide8"
       inkscape:locked="false" />
    <sodipodi:guide
       position="118.56577,534.18601"
       orientation="1,0"
       id="guide9"
       inkscape:locked="false" />
  </sodipodi:namedview>
  <defs
     id="defs1" />
  <g
     inkscape:label="Vrstva 1"
     inkscape:groupmode="layer"
     id="layer1"
     transform="matrix(3.6753357,0,0,3.6753357,-76.161816,-1075.0629)"
     inkscape:export-filename="vizitka-logo.svg"
     inkscape:export-xdpi="96"
     inkscape:export-ydpi="96">
    <path
       style="font-size:26.6667px;font-family:Arial;-inkscape-font-specification:Arial;fill:#007bff;stroke:#007bff;stroke-width:2.87388"
       d="m 22.159352,305.92568 q 1.002606,-0.026 1.627607,-0.53386 0.638021,-0.52083 0.846355,-1.41927 0.208333,-0.89844 0.221354,-3.07292 0.01302,-2.17448 0.07813,-2.86459 0.117188,-1.09375 0.429688,-1.75781 0.325522,-0.66406 0.794272,-1.05469 0.468751,-0.40365 1.197918,-0.61198 0.494793,-0.13021 1.614586,-0.13021 h 0.729167 v 2.04428 h -0.403646 q -1.354168,0 -1.796877,0.49479 -0.442709,0.48177 -0.442709,2.17448 0,3.41146 -0.14323,4.3099 -0.234375,1.39323 -0.807292,2.14844 -0.559897,0.75521 -1.770836,1.34115 1.432294,0.59896 2.070315,1.83594 0.651043,1.22396 0.651043,4.02344 0,2.53907 0.05208,3.02084 0.104167,0.88542 0.520834,1.23698 0.429688,0.35156 1.666669,0.35156 h 0.403646 v 2.04428 h -0.729167 q -1.276044,0 -1.848961,-0.20834 -0.833334,-0.29948 -1.38021,-0.97656 -0.546876,-0.66406 -0.716147,-1.69271 -0.15625,-1.02865 -0.169271,-3.3724 -0.01302,-2.34375 -0.221354,-3.24219 -0.208334,-0.89844 -0.846355,-1.41928 -0.625001,-0.52083 -1.627607,-0.54687 z"
       id="text1"
       aria-label="{" />
    <path
       style="font-size:26.6667px;font-family:Arial;-inkscape-font-specification:Arial;fill:#007bff;stroke:#007bff;stroke-width:2.87388"
       d="m 153.14557,305.38967 v 2.1224 q -1.0026,0.026 -1.64062,0.54687 -0.625,0.52084 -0.83334,1.41928 -0.20833,0.88541 -0.22135,3.0599 -0.013,2.17448 -0.0781,2.86458 -0.11718,1.10677 -0.44271,1.75782 -0.3125,0.66406 -0.78125,1.05469 -0.46875,0.40364 -1.19792,0.61198 -0.49479,0.14323 -1.61458,0.14323 h -0.72917 v -2.04428 h 0.40365 q 1.35417,0 1.79688,-0.49479 0.4427,-0.48177 0.4427,-2.1875 0,-3.25522 0.11719,-4.12761 0.20834,-1.44532 0.83334,-2.30469 0.625,-0.8724 1.77083,-1.35417 -1.4974,-0.71615 -2.10938,-1.88802 -0.61198,-1.1849 -0.61198,-3.98438 0,-2.53907 -0.0651,-3.03386 -0.0911,-0.8724 -0.52083,-1.21094 -0.41667,-0.35156 -1.65365,-0.35156 h -0.40365 v -2.04428 h 0.72917 q 1.27604,0 1.84896,0.20834 0.83333,0.28645 1.38021,0.96354 0.54688,0.67708 0.70313,1.70573 0.16927,1.02865 0.18229,3.3724 0.013,2.34375 0.22135,3.24219 0.20834,0.88542 0.83334,1.40625 0.63802,0.52084 1.64062,0.54688 z"
       id="text1-2"
       aria-label="}" />
    <path
       style="font-size:26.6667px;font-family:Arial;-inkscape-font-specification:Arial;fill:#ff7f00;stroke:#ff7f00"
       d="m 36.852733,302.36792 -0.598959,-3.56771 v -3.19011 h 2.669274 v 3.19011 l -0.625,3.56771 z m 14.101581,7.26564 2.30469,0.29948 q -0.377605,2.38281 -1.940107,3.73698 -1.549481,1.34115 -3.815109,1.34115 -2.838545,0 -4.570318,-1.84896 -1.718752,-1.86198 -1.718752,-5.32553 0,-2.23958 0.742188,-3.91927 0.742189,-1.67969 2.252607,-2.51303 1.52344,-0.84635 3.307296,-0.84635 2.252607,0 3.684901,1.14583 1.432293,1.13282 1.83594,3.22917 l -2.278649,0.35157 q -0.325521,-1.39324 -1.158856,-2.09636 -0.820313,-0.70313 -1.99219,-0.70313 -1.770835,0 -2.877608,1.27605 -1.106772,1.26302 -1.106772,4.01042 0,2.78646 1.06771,4.04948 1.067709,1.26302 2.786462,1.26302 1.38021,0 2.30469,-0.84635 0.92448,-0.84636 1.171877,-2.60417 z m 4.309902,5.06511 V 295.6101 h 2.343753 v 6.84897 q 1.640627,-1.90104 4.14063,-1.90104 1.53646,0 2.669274,0.61198 1.132814,0.59896 1.614586,1.66667 0.494792,1.0677 0.494792,3.09896 v 8.76303 h -2.343753 v -8.76303 q 0,-1.75782 -0.76823,-2.55209 -0.75521,-0.80729 -2.14844,-0.80729 -1.041668,0 -1.966149,0.54687 -0.911459,0.53386 -1.302085,1.45834 -0.390625,0.92448 -0.390625,2.55209 v 7.56511 z m 23.854194,-1.70573 q -1.302085,1.10677 -2.513024,1.5625 -1.197918,0.45573 -2.578128,0.45573 -2.278649,0 -3.502608,-1.10677 -1.22396,-1.1198 -1.22396,-2.85157 0,-1.01562 0.455729,-1.84896 0.468751,-0.84635 1.210939,-1.35417 0.75521,-0.50781 1.692711,-0.76823 0.690105,-0.18229 2.083336,-0.35156 2.838545,-0.33854 4.179693,-0.80729 0.01302,-0.48177 0.01302,-0.61198 0,-1.4323 -0.664063,-2.01823 -0.898438,-0.79428 -2.669274,-0.79428 -1.653648,0 -2.44792,0.58594 -0.781251,0.57292 -1.158855,2.04427 l -2.29167,-0.3125 q 0.3125,-1.47135 1.028647,-2.36979 0.716147,-0.91146 2.070315,-1.39323 1.354169,-0.49479 3.138025,-0.49479 1.770836,0 2.877608,0.41666 1.106772,0.41667 1.627606,1.05469 0.520834,0.625 0.729168,1.58855 0.117187,0.59896 0.117187,2.16146 v 3.125 q 0,3.26823 0.14323,4.14063 0.15625,0.85938 0.598959,1.65365 h -2.44792 q -0.364584,-0.72917 -0.468751,-1.70573 z m -0.195312,-5.23438 q -1.276044,0.52083 -3.82813,0.88541 -1.445315,0.20834 -2.044274,0.46875 -0.598959,0.26042 -0.92448,0.76824 -0.325521,0.49479 -0.325521,1.10677 0,0.9375 0.703126,1.5625 0.716146,0.625 2.083336,0.625 1.354168,0 2.408857,-0.58594 1.054689,-0.59896 1.549481,-1.6276 0.377605,-0.79428 0.377605,-2.34376 z m 5.976571,6.94011 v -13.82814 h 2.109378 v 2.09635 q 0.807293,-1.47135 1.484377,-1.9401 0.690105,-0.46875 1.510418,-0.46875 1.184898,0 2.408858,0.75521 l -0.807293,2.17448 q -0.859376,-0.50782 -1.718752,-0.50782 -0.76823,0 -1.38021,0.46876 -0.61198,0.45572 -0.872397,1.27604 -0.390626,1.25 -0.390626,2.73438 v 7.23959 z m 8.919281,-12.33075 -0.598959,-3.56771 v -3.19011 h 2.669274 v 3.19011 l -0.625,3.56771 z"
       id="text2"
       aria-label="'char'" />
    <path
       d="m 101.48311,314.73901 -4.231775,-13.82814 h 2.421878 l 2.200527,7.98178 0.82031,2.96876 q 0.0521,-0.22136 0.71615,-2.85157 l 2.20052,-8.09897 h 2.40886 l 2.07031,8.02084 0.69011,2.64324 0.79427,-2.66928 2.36979,-7.9948 h 2.27865 l -4.32292,13.82814 h -2.4349 l -2.20052,-8.28126 -0.53386,-2.35677 -2.79948,10.63803 z m 15.83336,-6.91407 q 0,-3.84115 2.13541,-5.69011 1.78386,-1.53646 4.34897,-1.53646 2.85156,0 4.66146,1.875 1.8099,1.86198 1.8099,5.15626 0,2.66927 -0.80729,4.20573 -0.79427,1.52344 -2.33073,2.3698 -1.52344,0.84635 -3.33334,0.84635 -2.90365,0 -4.70053,-1.86198 -1.78385,-1.86198 -1.78385,-5.36459 z m 2.40885,0 q 0,2.65626 1.15886,3.98438 1.15885,1.31511 2.91667,1.31511 1.74479,0 2.90365,-1.32813 1.15885,-1.32813 1.15885,-4.04948 0,-2.56511 -1.17187,-3.88022 -1.15886,-1.32812 -2.89063,-1.32812 -1.75782,0 -2.91667,1.3151 -1.15886,1.31511 -1.15886,3.97136 z m 18.41148,4.81772 0.33855,2.07031 q -0.98959,0.20834 -1.77084,0.20834 -1.27604,0 -1.97917,-0.40365 -0.70312,-0.40365 -0.98958,-1.05469 -0.28646,-0.66406 -0.28646,-2.77344 v -7.95574 h -1.71875 v -1.82292 h 1.71875 v -3.42448 l 2.33073,-1.40625 v 4.83073 h 2.35677 v 1.82292 h -2.35677 v 8.08595 q 0,1.0026 0.11719,1.28906 0.13021,0.28646 0.40364,0.45573 0.28646,0.16927 0.8073,0.16927 0.39062,0 1.02864,-0.0911 z"
       id="text2-9"
       style="font-size:26.6667px;font-family:Arial;-inkscape-font-specification:Arial;fill:#007bff;stroke:#007bff"
       aria-label="wot" />
  </g>
</svg>
