<svg xmlns="http://www.w3.org/2000/svg" width="183" height="40.36" viewBox="0 0 183 40.36">
  <g id="logo_bottom_white" transform="translate(-91.095 -91.928)">
    <path id="Path_1" data-name="Path 1" d="M104.039,146.093c-4.332,0-7.3-3.072-7.3-7.555,0-4.532,2.97-7.6,7.3-7.6,4.382,0,7.3,3.072,7.3,7.6,0,4.483-2.921,7.555-7.3,7.555m0-20.247c-7.705,0-12.944,5.137-12.944,12.692,0,7.5,5.239,12.642,12.944,12.642,7.656,0,12.944-5.138,12.944-12.642,0-7.555-5.288-12.692-12.944-12.692" transform="translate(0 -18.892)" fill="#fff"/>
    <path id="Path_2" data-name="Path 2" d="M172.1,126.187c-3.475,0-6.044,1.41-7.555,4.029h-.1v-.906a2.777,2.777,0,1,0-5.541,0V148.1a2.651,2.651,0,0,0,2.771,2.971c1.763,0,2.77-1.108,2.77-2.971v-7.908c0-5.892,2.82-8.461,7.655-8.461a2.77,2.77,0,1,0,0-5.54" transform="translate(-37.771 -19.082)" fill="#fff"/>
    <g id="Group_1" data-name="Group 1" transform="translate(213.113 96.831)">
      <path id="Path_3" data-name="Path 3" d="M369.8,103a3.324,3.324,0,1,0,3.323,3.324A3.106,3.106,0,0,0,369.8,103" transform="translate(-366.527 -102.995)" fill="#fff"/>
      <path id="Path_4" data-name="Path 4" d="M370.433,126.527a2.677,2.677,0,0,0-2.771,2.972v18.786a2.651,2.651,0,0,0,2.771,2.971c1.762,0,2.77-1.108,2.77-2.971V129.5a2.651,2.651,0,0,0-2.77-2.972" transform="translate(-367.159 -116.102)" fill="#fff"/>
    </g>
    <path id="Path_5" data-name="Path 5" d="M404.954,123.211l7.353-5.741a2.737,2.737,0,0,0-1.562-4.936,3.372,3.372,0,0,0-2.216.957l-11.785,9.872V104.375c0-1.864-1.007-2.972-2.769-2.972a2.652,2.652,0,0,0-2.77,2.972v29.916a2.652,2.652,0,0,0,2.77,2.972c1.763,0,2.769-1.108,2.769-2.972v-4.734l3.929-3.022,7.856,9.519a2.984,2.984,0,0,0,2.368,1.209,2.617,2.617,0,0,0,2.77-2.77,3.334,3.334,0,0,0-.956-2.267Z" transform="translate(-167.159 -5.278)" fill="#fff"/>
    <path id="Path_6" data-name="Path 6" d="M458.865,146.093c-4.281,0-7.253-3.072-7.253-7.555,0-4.532,2.972-7.6,7.253-7.6,4.332,0,7.353,3.122,7.353,7.6,0,4.432-3.021,7.555-7.353,7.555m10.073-19.945a2.665,2.665,0,0,0-2.72,2.972v.252h-.1a10.383,10.383,0,0,0-8.361-3.525c-7.1,0-11.785,5.037-11.785,12.692,0,7.606,4.684,12.642,11.785,12.642a10.38,10.38,0,0,0,8.361-3.526h.1v.253c0,1.863,1.058,2.971,2.72,2.971a2.663,2.663,0,0,0,2.821-2.971V129.12a2.688,2.688,0,0,0-2.821-2.972" transform="translate(-197.664 -18.892)" fill="#fff"/>
    <path id="Path_7" data-name="Path 7" d="M217.207,133.233a2.482,2.482,0,0,0-2.127,1.2,4.022,4.022,0,0,1-3.568,1.972c-2.463,0-3.974-1.609-3.974-4.492V121.844h3.9a2.553,2.553,0,1,0,0-5.087h-3.9V111.42a2.777,2.777,0,1,0-5.541,0v20.358c0,6.086,3.47,9.71,9.262,9.71,3.876,0,6.744-1.454,8.158-4.225a3.4,3.4,0,0,0,.35-1.469,2.4,2.4,0,0,0-2.561-2.561" transform="translate(-61.772 -9.205)" fill="#fff"/>
    <path id="Path_8" data-name="Path 8" d="M254.645,127.2h0c-4.337,0-7.3-3.078-7.3-7.556,0-4.533,2.966-7.611,7.3-7.611h0c4.337,0,7.3,3.078,7.3,7.611,0,4.478-2.966,7.556-7.3,7.556m33.648-3.177a2.455,2.455,0,0,0-2.115,1.209A4.043,4.043,0,0,1,282.6,127.2c-2.468,0-3.979-1.612-3.979-4.483V112.645h8.361a2.552,2.552,0,1,0,0-5.086h-8.361V102.22a2.777,2.777,0,1,0-5.54,0v5.34h-6.649a2.76,2.76,0,0,1-2.062-.569,1.033,1.033,0,0,1,.033-1.343,2.777,2.777,0,1,0-4.349-3.433c-.757.959-2.257.62-3.168-.213a2.948,2.948,0,0,1,.133-4.323c-.006,0-.014.009-.02.014a3.32,3.32,0,0,0,.941-2.441,3.125,3.125,0,0,0-3.3-3.324h0a3.126,3.126,0,0,0-3.3,3.324,3.319,3.319,0,0,0,.941,2.441c-.006-.005-.014-.009-.019-.014A2.948,2.948,0,0,1,252.4,102c-.911.833-2.411,1.172-3.168.213a2.777,2.777,0,1,0-4.349,3.433,1.035,1.035,0,0,1,.034,1.343,2.762,2.762,0,0,1-2.062.569h-4.409a2.553,2.553,0,1,0,0,5.087h.052c4.129,0,4.512.417,3.779,2.884a14.512,14.512,0,0,0-.576,4.118c0,7.5,5.233,12.635,12.943,12.635h0c7.709,0,12.942-5.135,12.942-12.635a14.481,14.481,0,0,0-.577-4.118c-.732-2.467-.349-2.884,3.78-2.884h2.292v9.92c0,6.094,3.475,9.721,9.268,9.721,3.878,0,6.749-1.461,8.158-4.231a3.3,3.3,0,0,0,.353-1.461,2.4,2.4,0,0,0-2.569-2.568" transform="translate(-80.531)" fill="#fff"/>
  </g>
</svg>
